Coordinates
nRows=153
nColumns=2
inDegrees=yes
endheader
time	ankle_angle_r	
2.93731	 18.783569	
2.99981	 18.737793	
3.0623	 18.905640	
3.1248	 18.814087	
3.1873	 18.829346	
3.24979	 18.875122	
3.31229	 18.753052	
3.37478	 18.768311	
3.43728	 18.829346	
3.49978	 18.783569	
3.56227	 18.844604	
3.62477	 18.844604	
3.68726	 18.905640	
3.74976	 18.875122	
3.81226	 18.890381	
3.87475	 18.783569	
3.93725	 18.798828	
3.99974	 18.783569	
4.06224	 18.753052	
4.12474	 18.981934	
4.18723	 18.936157	
4.24973	 18.951416	
4.31222	 18.936157	
4.37472	 18.783569	
4.43722	 18.875122	
4.49971	 18.783569	
4.56221	 18.768311	
4.6247	 18.951416	
4.6872	 18.875122	
4.7497	 18.920898	
4.81219	 18.920898	
4.87469	 18.814087	
4.93718	 18.890381	
4.99968	 18.875122	
5.06218	 18.722534	
5.12467	 18.905640	
5.18717	 18.920898	
5.24966	 18.890381	
5.31216	 18.936157	
5.37466	 18.798828	
5.43715	 18.798828	
5.49965	 18.844604	
5.56214	 18.798828	
5.62464	 18.905640	
5.68714	 18.890381	
5.74963	 18.890381	
5.81213	 18.981934	
5.87462	 18.814087	
5.93712	 18.798828	
5.99962	 18.829346	
6.06211	 18.798828	
6.12461	 18.844604	
6.1871	 18.859863	
6.2496	 18.844604	
6.3121	 18.844604	
6.37459	 18.875122	
6.43709	 18.737793	
6.49958	 18.783569	
6.56208	 18.768311	
6.62458	 18.753052	
6.68707	 18.905640	
6.74957	 18.814087	
6.81206	 18.844604	
6.87456	 18.829346	
6.93706	 18.737793	
6.99955	 18.768311	
7.06205	 18.737793	
7.12454	 18.722534	
7.18704	 18.859863	
7.24954	 18.844604	
7.31203	 18.814087	
7.37453	 18.890381	
7.43702	 18.737793	
7.49952	 18.768311	
7.56202	 18.798828	
7.62451	 18.753052	
7.68701	 18.890381	
7.7495	 18.844604	
7.812	 18.814087	
7.8745	 18.875122	
7.93699	 18.737793	
7.99949	 18.783569	
8.06198	 18.783569	
8.12448	 18.783569	
8.18698	 18.859863	
8.24947	 18.844604	
8.31197	 18.783569	
8.37446	 18.859863	
8.43696	 18.798828	
8.49946	 18.722534	
8.56195	 18.798828	
8.62445	 18.753052	
8.68694	 18.798828	
8.74944	 18.859863	
8.81194	 18.814087	
8.87443	 18.859863	
8.93693	 18.905640	
8.99942	 18.783569	
9.06192	 18.859863	
9.12442	 18.783569	
9.18691	 18.829346	
9.24941	 18.936157	
9.3119	 18.814087	
9.3744	 18.844604	
9.4369	 18.875122	
9.49939	 18.722534	
9.56189	 18.814087	
9.62438	 18.753052	
9.68688	 18.722534	
9.74938	 18.890381	
9.81187	 18.829346	
9.87437	 18.814087	
9.93686	 18.890381	
9.99936	 18.737793	
10.0619	 18.783569	
10.1244	 18.783569	
10.1868	 18.753052	
10.2493	 18.890381	
10.3118	 18.829346	
10.3743	 18.814087	
10.4368	 18.875122	
10.4993	 18.737793	
10.5618	 18.768311	
10.6243	 18.798828	
10.6868	 18.768311	
10.7493	 18.859863	
10.8118	 18.844604	
10.8743	 18.783569	
10.9368	 18.844604	
10.9993	 18.753052	
11.0618	 18.768311	
11.1243	 18.829346	
11.1868	 18.783569	
11.2493	 18.814087	
11.3118	 18.875122	
11.3743	 18.829346	
11.4368	 18.859863	
11.4993	 18.829346	
11.5618	 18.753052	
11.6243	 18.814087	
11.6868	 18.798828	
11.7492	 18.829346	
11.8117	 18.920898	
11.8742	 18.844604	
11.9367	 18.936157	
11.9992	 18.890381	
12.0617	 18.844604	
12.1242	 18.905640	
12.1867	 18.844604	
12.2492	 18.783569	
12.3117	 18.920898	
12.3742	 18.859863	
12.4367	 18.905640	
